HIERARCHY
ROOT SpineBase
{
  OFFSET 0.000000 0.000000 0.000000
  CHANNELS 6 Xposition Yposition Zposition Zrotation Xrotation Yrotation
  JOINT SpineMid
  {
    OFFSET 0.000000 30.624868 0.000000
    CHANNELS 3 Zrotation Xrotation Yrotation
    JOINT SpineShoulder
    {
      OFFSET 0.105867 22.728445 -0.854108
      CHANNELS 3 Zrotation Xrotation Yrotation
      JOINT Neck
      {
        OFFSET 0.056834 7.538007 -0.633899
        CHANNELS 3 Zrotation Xrotation Yrotation
        JOINT Head
        {
          OFFSET 3.805640 13.544871 2.275123
          CHANNELS 3 Zrotation Xrotation Yrotation
          End Site
          {
            OFFSET 0 0 0
          }
        }
      }
      JOINT ShoulderLeft
      {
        OFFSET -10.842687 -2.391602 -12.355395
        CHANNELS 3 Zrotation Xrotation Yrotation
        JOINT ElbowLeft
        {
          OFFSET -3.639568 -25.465346 -5.894912
          CHANNELS 3 Zrotation Xrotation Yrotation
          JOINT WristLeft
          {
            OFFSET 6.445400 -23.444979 -5.050685
            CHANNELS 3 Zrotation Xrotation Yrotation
            JOINT HandLeft
            {
              OFFSET 2.206587 -3.260185 1.174482
              CHANNELS 3 Zrotation Xrotation Yrotation
              JOINT HandTipLeft
              {
                OFFSET 1.018400 -5.777617 1.898081
                CHANNELS 3 Zrotation Xrotation Yrotation
                End Site
                {
                  OFFSET 0 0 0
                }
              }
              JOINT ThumbLeft
              {
                OFFSET -4.029810 -0.048099 -2.785454
                CHANNELS 3 Zrotation Xrotation Yrotation
                End Site
                {
                  OFFSET 0 0 0
                }
              }
            }
          }
        }
      }
      JOINT ShoulderRight
      {
        OFFSET 13.052064 -5.425372 9.995372
        CHANNELS 3 Zrotation Xrotation Yrotation
        JOINT ElbowRight
        {
          OFFSET 1.490745 -29.863279 1.480752
          CHANNELS 3 Zrotation Xrotation Yrotation
          JOINT WristRight
          {
            OFFSET 5.082745 -25.305753 -9.306778
            CHANNELS 3 Zrotation Xrotation Yrotation
            JOINT HandRight
            {
              OFFSET -0.345925 -7.950309 -3.265870
              CHANNELS 3 Zrotation Xrotation Yrotation
              JOINT HandTipRight
              {
                OFFSET -0.454592 -7.984878 -1.846215
                CHANNELS 3 Zrotation Xrotation Yrotation
                End Site
                {
                  OFFSET 0 0 0
                }
              }
              JOINT ThumbRight
              {
                OFFSET -4.892568 -0.623597 -1.964010
                CHANNELS 3 Zrotation Xrotation Yrotation
                End Site
                {
                  OFFSET 0 0 0
                }
              }
            }
          }
        }
      }
    }
  }
  JOINT HipLeft
  {
    OFFSET -4.897976 1.828768 -7.617427
    CHANNELS 3 Zrotation Xrotation Yrotation
    JOINT KneeLeft
    {
      OFFSET -7.677625 -27.383989 -3.943878
      CHANNELS 3 Zrotation Xrotation Yrotation
      JOINT AnkleLeft
      {
        OFFSET -3.870651 -33.016491 1.704551
        CHANNELS 3 Zrotation Xrotation Yrotation
        JOINT FootLeft
        {
          OFFSET 7.826030 -3.707131 -11.054222
          CHANNELS 3 Zrotation Xrotation Yrotation
          End Site
          {
            OFFSET 0 0 0
          }
        }
      }
    }
  }
  JOINT HipRight
  {
    OFFSET 5.732191 0.118205 0.560400
    CHANNELS 3 Zrotation Xrotation Yrotation
    JOINT KneeRight
    {
      OFFSET -5.243786 -30.549144 2.094335
      CHANNELS 3 Zrotation Xrotation Yrotation
      JOINT AnkleRight
      {
        OFFSET -5.494001 -29.221673 1.506961
        CHANNELS 3 Zrotation Xrotation Yrotation
        JOINT FootRight
        {
          OFFSET 6.208713 -5.245776 -8.613566
          CHANNELS 3 Zrotation Xrotation Yrotation
          End Site
          {
            OFFSET 0 0 0
          }
        }
      }
    }
  }
}
MOTION
Frames: 6
Frame Time: 0.033333
-27.750685 65.671046 333.817661 16.512936 10.930091 13.725231 0.669449 1.422770 -14.948401 1.393043 0.371281 0.967598 29.450722 5.082176 -15.552698 0.000000 0.000000 0.000000 24.656663 -6.775048 -7.540725 -1.244525 4.493737 3.967247 -26.587088 20.417912 28.745923 24.424236 -6.701040 2.151985 0.000000 0.000000 0.000000 0.000000 0.000000 0.000000 121.600186 -54.281791 110.124952 15.087217 -22.560174 -113.775484 -24.561990 49.580593 -94.448933 -28.490987 26.758718 -59.914219 0.000000 0.000000 0.000000 0.000000 0.000000 0.000000 -9.239409 9.619595 -22.298678 -16.342412 -28.774535 0.301439 13.108475 14.809415 7.828653 0.000000 0.000000 0.000000 -16.117788 -15.603773 -14.080082 -19.625315 3.165330 0.331911 12.578700 13.021359 11.158483 0.000000 0.000000 0.000000
-28.948027 64.964320 335.042074 16.026561 9.254187 27.362887 1.352167 1.141692 -28.283103 1.497054 0.181124 0.998223 25.619068 4.965278 -14.668373 0.000000 0.000000 0.000000 29.290980 -8.486116 -7.234860 1.949628 3.991012 2.119017 -20.208783 19.335024 29.793918 22.119539 -5.685568 3.072217 0.000000 0.000000 0.000000 0.000000 0.000000 0.000000 97.369251 -54.055684 80.535837 30.033046 -12.198559 -101.245213 -19.020932 19.051182 -41.644055 -34.251773 50.854025 -66.179504 0.000000 0.000000 0.000000 0.000000 0.000000 0.000000 -3.059992 14.631846 -37.309828 -17.221762 -31.432352 0.297450 10.462430 10.990191 9.871562 0.000000 0.000000 0.000000 -17.401305 -12.540945 -26.460570 -21.505354 6.695072 0.535443 8.799657 4.979263 12.361442 0.000000 0.000000 0.000000
-29.885879 64.522836 336.297801 16.089655 7.465960 34.123450 1.726654 1.047358 -34.808201 1.672576 0.217380 1.015620 20.818476 4.272752 -13.276201 0.000000 0.000000 0.000000 31.463080 -9.562033 -7.189154 6.539680 1.933752 0.612156 -14.961589 13.787467 28.621633 20.552249 -1.365414 3.955224 0.000000 0.000000 0.000000 0.000000 0.000000 0.000000 76.514303 -50.966343 57.509404 34.736324 12.479552 -85.604767 4.571591 12.606868 -31.614426 -43.691662 59.724911 -54.583186 0.000000 0.000000 0.000000 0.000000 0.000000 0.000000 1.766287 17.081297 -45.448449 -18.314856 -32.749066 0.180605 9.550106 8.287916 9.269917 0.000000 0.000000 0.000000 -16.416742 -9.980484 -32.340401 -22.792481 7.812746 0.511292 5.858175 -1.160110 11.665776 0.000000 0.000000 0.000000
-30.429953 64.236470 337.268357 16.124947 6.085923 34.848819 1.651478 1.130952 -35.359022 0.774528 0.167152 0.863455 20.523826 3.169838 -11.970370 0.000000 0.000000 0.000000 32.763418 -9.393295 -7.419380 12.394221 -1.758857 -0.021653 -1.124647 10.316551 28.991788 13.346460 6.631591 1.151495 0.000000 0.000000 0.000000 0.000000 0.000000 0.000000 63.387817 -45.765000 41.962439 27.865801 35.424547 -70.064776 24.719197 16.936893 -36.881061 -45.242946 42.824949 -32.468557 0.000000 0.000000 0.000000 0.000000 0.000000 0.000000 3.621890 18.090325 -46.648658 -18.996231 -32.825425 0.119457 10.565281 8.348292 6.880830 0.000000 0.000000 0.000000 -14.057215 -8.472819 -32.767648 -23.269353 6.354623 0.310522 5.846625 1.252242 12.513263 0.000000 0.000000 0.000000
-30.313476 64.060894 337.955256 16.616201 5.052562 27.110416 1.443681 1.338905 -27.486031 0.372245 -0.056727 0.858280 18.401573 0.684379 -9.837286 0.000000 0.000000 0.000000 35.214455 -9.590411 -7.912242 17.500292 -6.306015 0.303048 -8.924579 -14.959082 25.444982 47.146276 31.401169 -9.896471 0.000000 0.000000 0.000000 0.000000 0.000000 0.000000 51.370204 -39.408315 29.538140 19.097685 54.350457 -56.859379 35.952959 28.213606 -42.413321 -37.324089 15.478182 -17.917698 0.000000 0.000000 0.000000 0.000000 0.000000 0.000000 -0.036594 18.789673 -37.795862 -18.000833 -31.146560 0.445752 9.130541 6.340949 6.561938 0.000000 0.000000 0.000000 -13.028381 -6.736053 -25.479908 -21.331569 4.565597 -0.065559 5.974795 0.650532 10.700287 0.000000 0.000000 0.000000
-31.221420 63.705439 338.449008 15.700920 4.351339 15.712245 1.307733 1.330015 -15.920480 0.262936 -0.055563 0.809030 17.457580 -2.822714 -7.093214 0.000000 0.000000 0.000000 34.707615 -8.941381 -8.239083 28.486938 -12.211079 1.141383 -11.847116 -45.438585 25.251602 64.627862 28.221152 -14.125505 0.000000 0.000000 0.000000 0.000000 0.000000 0.000000 42.702888 -30.463161 19.567260 1.444388 62.961929 -36.667483 46.550864 45.131321 -52.807647 -23.889521 -19.519844 -6.145410 0.000000 0.000000 0.000000 0.000000 0.000000 0.000000 -2.292607 16.822637 -25.218089 -18.250668 -29.546043 0.891217 5.567714 3.749433 10.164322 0.000000 0.000000 0.000000 -9.404920 -6.770680 -14.473174 -21.202209 2.494314 -0.387173 5.389277 0.323973 10.543230 0.000000 0.000000 0.000000
